# xmcd
#
# Track frame offsets: 
#        150
#        25789
#        50975
#        72987
#        94323
#        116537
#        139325
#        160419
#
# Disc length: 2414 seconds
#
# Revision: 0
# Processed by: cddbd v1.5.2PL0 Copyright (c) Steve Scherf et al.
# Submitted via: ExactAudioCopy v1.3
#
DISCID=75096c08
DTITLE=歌手2018第三期 - 歌手2018第三期
DYEAR=1900
DGENRE=Pop
TTITLE0=汪峰 - 下坠
TTITLE1=Jessie J - Killing Me Softly With His Song
TTITLE2=张韶涵 - 全世界失眠
TTITLE3=张天 - Hello
TTITLE4=李圣杰 - 离人
TTITLE5=李晓东 - 心的祈祷
TTITLE6=苏诗丁 - 狼
TTITLE7=李泉 - 我要我们在一起
EXTD=
EXTT0=
EXTT1=
EXTT2=
EXTT3=
EXTT4=
EXTT5=
EXTT6=
EXTT7=
PLAYORDER=
